<svg id="visual" viewBox="0 0 900 600" width="900" height="600" xmlns="http://www.w3.org/2000/svg" xmlns:xlink="http://www.w3.org/1999/xlink" version="1.1"><g stroke-width="1" stroke-linejoin="bevel"><path d="M454 298L501 353L498 285Z" fill="#757a82" stroke="#757a82"></path><path d="M454 298L446 344L501 353Z" fill="#cccccc" stroke="#cccccc"></path><path d="M545 304L517 273L498 285Z" fill="#b6b7b9" stroke="#b6b7b9"></path><path d="M498 285L431 224L454 298Z" fill="#8a8e94" stroke="#8a8e94"></path><path d="M501 353L545 304L498 285Z" fill="#616771" stroke="#616771"></path><path d="M501 353L541 347L545 304Z" fill="#757a82" stroke="#757a82"></path><path d="M454 298L416 327L446 344Z" fill="#3a4250" stroke="#3a4250"></path><path d="M447 408L499 396L446 344Z" fill="#a0a2a6" stroke="#a0a2a6"></path><path d="M446 344L499 396L501 353Z" fill="#757a82" stroke="#757a82"></path><path d="M501 353L499 396L541 347Z" fill="#757a82" stroke="#757a82"></path><path d="M399 394L447 408L446 344Z" fill="#a0a2a6" stroke="#a0a2a6"></path><path d="M416 327L393 367L446 344Z" fill="#616771" stroke="#616771"></path><path d="M517 273L431 224L498 285Z" fill="#b6b7b9" stroke="#b6b7b9"></path><path d="M454 298L379 253L416 327Z" fill="#152131" stroke="#152131"></path><path d="M416 327L324 325L393 367Z" fill="#4d5460" stroke="#4d5460"></path><path d="M563 402L597 328L541 347Z" fill="#616771" stroke="#616771"></path><path d="M541 347L597 328L545 304Z" fill="#001122" stroke="#001122"></path><path d="M545 304L562 224L517 273Z" fill="#273140" stroke="#273140"></path><path d="M393 367L399 394L446 344Z" fill="#cccccc" stroke="#cccccc"></path><path d="M526 443L563 402L499 396Z" fill="#616771" stroke="#616771"></path><path d="M499 396L563 402L541 347Z" fill="#a0a2a6" stroke="#a0a2a6"></path><path d="M411 432L438 433L447 408Z" fill="#cccccc" stroke="#cccccc"></path><path d="M447 408L438 433L499 396Z" fill="#a0a2a6" stroke="#a0a2a6"></path><path d="M613 241L562 224L545 304Z" fill="#a0a2a6" stroke="#a0a2a6"></path><path d="M517 273L509 184L431 224Z" fill="#4d5460" stroke="#4d5460"></path><path d="M431 224L379 253L454 298Z" fill="#001122" stroke="#001122"></path><path d="M562 224L550 209L517 273Z" fill="#273140" stroke="#273140"></path><path d="M656 315L613 305L597 328Z" fill="#a0a2a6" stroke="#a0a2a6"></path><path d="M597 328L613 305L545 304Z" fill="#152131" stroke="#152131"></path><path d="M501 477L526 443L499 396Z" fill="#273140" stroke="#273140"></path><path d="M399 394L411 432L447 408Z" fill="#cccccc" stroke="#cccccc"></path><path d="M438 433L501 477L499 396Z" fill="#cccccc" stroke="#cccccc"></path><path d="M550 209L509 184L517 273Z" fill="#001122" stroke="#001122"></path><path d="M579 435L600 400L563 402Z" fill="#4d5460" stroke="#4d5460"></path><path d="M563 402L600 400L597 328Z" fill="#001122" stroke="#001122"></path><path d="M393 367L366 399L399 394Z" fill="#757a82" stroke="#757a82"></path><path d="M399 394L366 399L411 432Z" fill="#616771" stroke="#616771"></path><path d="M312 375L366 399L393 367Z" fill="#616771" stroke="#616771"></path><path d="M509 184L448 177L431 224Z" fill="#001122" stroke="#001122"></path><path d="M356 197L356 242L379 253Z" fill="#616771" stroke="#616771"></path><path d="M526 443L579 435L563 402Z" fill="#b6b7b9" stroke="#b6b7b9"></path><path d="M402 180L379 253L431 224Z" fill="#616771" stroke="#616771"></path><path d="M379 253L330 304L416 327Z" fill="#3a4250" stroke="#3a4250"></path><path d="M613 305L613 241L545 304Z" fill="#3a4250" stroke="#3a4250"></path><path d="M562 224L578 198L550 209Z" fill="#273140" stroke="#273140"></path><path d="M550 209L575 139L509 184Z" fill="#001122" stroke="#001122"></path><path d="M613 241L578 198L562 224Z" fill="#757a82" stroke="#757a82"></path><path d="M356 242L330 304L379 253Z" fill="#757a82" stroke="#757a82"></path><path d="M509 498L501 477L457 508Z" fill="#cccccc" stroke="#cccccc"></path><path d="M526 443L565 503L579 435Z" fill="#152131" stroke="#152131"></path><path d="M330 304L324 325L416 327Z" fill="#3a4250" stroke="#3a4250"></path><path d="M448 177L402 180L431 224Z" fill="#8a8e94" stroke="#8a8e94"></path><path d="M575 139L489 152L509 184Z" fill="#8a8e94" stroke="#8a8e94"></path><path d="M509 184L489 152L448 177Z" fill="#a0a2a6" stroke="#a0a2a6"></path><path d="M448 177L383 140L402 180Z" fill="#8a8e94" stroke="#8a8e94"></path><path d="M655 353L656 315L597 328Z" fill="#a0a2a6" stroke="#a0a2a6"></path><path d="M613 305L654 231L613 241Z" fill="#757a82" stroke="#757a82"></path><path d="M655 353L597 328L600 400Z" fill="#757a82" stroke="#757a82"></path><path d="M666 373L655 353L600 400Z" fill="#cccccc" stroke="#cccccc"></path><path d="M402 180L356 197L379 253Z" fill="#3a4250" stroke="#3a4250"></path><path d="M290 248L279 318L330 304Z" fill="#cccccc" stroke="#cccccc"></path><path d="M279 318L312 375L324 325Z" fill="#152131" stroke="#152131"></path><path d="M457 508L501 477L438 433Z" fill="#616771" stroke="#616771"></path><path d="M501 477L509 498L526 443Z" fill="#a0a2a6" stroke="#a0a2a6"></path><path d="M298 389L354 444L366 399Z" fill="#4d5460" stroke="#4d5460"></path><path d="M366 399L354 444L411 432Z" fill="#8a8e94" stroke="#8a8e94"></path><path d="M427 522L457 508L438 433Z" fill="#757a82" stroke="#757a82"></path><path d="M324 325L312 375L393 367Z" fill="#3a4250" stroke="#3a4250"></path><path d="M473 79L464 134L489 152Z" fill="#3a4250" stroke="#3a4250"></path><path d="M489 152L464 134L448 177Z" fill="#3a4250" stroke="#3a4250"></path><path d="M402 180L366 160L356 197Z" fill="#273140" stroke="#273140"></path><path d="M677 436L666 373L600 400Z" fill="#152131" stroke="#152131"></path><path d="M655 353L724 316L656 315Z" fill="#273140" stroke="#273140"></path><path d="M677 436L600 400L579 435Z" fill="#a0a2a6" stroke="#a0a2a6"></path><path d="M427 522L438 433L411 432Z" fill="#152131" stroke="#152131"></path><path d="M656 315L654 231L613 305Z" fill="#4d5460" stroke="#4d5460"></path><path d="M655 193L620 159L578 198Z" fill="#757a82" stroke="#757a82"></path><path d="M578 198L575 139L550 209Z" fill="#152131" stroke="#152131"></path><path d="M674 189L654 231L719 262Z" fill="#001122" stroke="#001122"></path><path d="M383 140L366 160L402 180Z" fill="#001122" stroke="#001122"></path><path d="M312 375L298 389L366 399Z" fill="#152131" stroke="#152131"></path><path d="M279 318L298 389L312 375Z" fill="#cccccc" stroke="#cccccc"></path><path d="M279 318L324 325L330 304Z" fill="#4d5460" stroke="#4d5460"></path><path d="M330 304L356 242L290 248Z" fill="#cccccc" stroke="#cccccc"></path><path d="M508 537L565 503L509 498Z" fill="#001122" stroke="#001122"></path><path d="M509 498L565 503L526 443Z" fill="#273140" stroke="#273140"></path><path d="M296 479L365 482L354 444Z" fill="#cccccc" stroke="#cccccc"></path><path d="M354 444L365 482L411 432Z" fill="#273140" stroke="#273140"></path><path d="M620 159L575 139L578 198Z" fill="#757a82" stroke="#757a82"></path><path d="M290 248L356 242L306 193Z" fill="#4d5460" stroke="#4d5460"></path><path d="M464 134L383 140L448 177Z" fill="#273140" stroke="#273140"></path><path d="M306 193L356 197L366 160Z" fill="#152131" stroke="#152131"></path><path d="M306 193L356 242L356 197Z" fill="#8a8e94" stroke="#8a8e94"></path><path d="M565 503L596 496L579 435Z" fill="#273140" stroke="#273140"></path><path d="M655 193L578 198L613 241Z" fill="#757a82" stroke="#757a82"></path><path d="M379 502L427 522L411 432Z" fill="#4d5460" stroke="#4d5460"></path><path d="M457 508L508 537L509 498Z" fill="#616771" stroke="#616771"></path><path d="M375 543L379 502L303 547Z" fill="#b6b7b9" stroke="#b6b7b9"></path><path d="M365 482L379 502L411 432Z" fill="#001122" stroke="#001122"></path><path d="M674 189L655 193L654 231Z" fill="#757a82" stroke="#757a82"></path><path d="M654 231L655 193L613 241Z" fill="#616771" stroke="#616771"></path><path d="M438 536L508 537L457 508Z" fill="#4d5460" stroke="#4d5460"></path><path d="M565 503L564 545L596 496Z" fill="#616771" stroke="#616771"></path><path d="M274 165L306 193L281 143Z" fill="#4d5460" stroke="#4d5460"></path><path d="M375 543L438 536L427 522Z" fill="#3a4250" stroke="#3a4250"></path><path d="M427 522L438 536L457 508Z" fill="#616771" stroke="#616771"></path><path d="M473 79L437 103L464 134Z" fill="#b6b7b9" stroke="#b6b7b9"></path><path d="M464 134L437 103L383 140Z" fill="#757a82" stroke="#757a82"></path><path d="M596 496L677 436L579 435Z" fill="#cccccc" stroke="#cccccc"></path><path d="M719 262L654 231L656 315Z" fill="#152131" stroke="#152131"></path><path d="M620 159L572 109L575 139Z" fill="#4d5460" stroke="#4d5460"></path><path d="M575 139L572 109L489 152Z" fill="#001122" stroke="#001122"></path><path d="M574 88L572 109L647 73Z" fill="#273140" stroke="#273140"></path><path d="M724 316L655 353L731 349Z" fill="#a0a2a6" stroke="#a0a2a6"></path><path d="M655 193L662 169L620 159Z" fill="#152131" stroke="#152131"></path><path d="M674 189L662 169L655 193Z" fill="#273140" stroke="#273140"></path><path d="M306 193L263 234L290 248Z" fill="#001122" stroke="#001122"></path><path d="M290 248L232 279L279 318Z" fill="#616771" stroke="#616771"></path><path d="M508 537L564 545L565 503Z" fill="#001122" stroke="#001122"></path><path d="M596 496L671 494L677 436Z" fill="#a0a2a6" stroke="#a0a2a6"></path><path d="M503 600L564 545L508 537Z" fill="#001122" stroke="#001122"></path><path d="M725 366L655 353L666 373Z" fill="#616771" stroke="#616771"></path><path d="M724 316L724 296L656 315Z" fill="#4d5460" stroke="#4d5460"></path><path d="M572 109L473 79L489 152Z" fill="#b6b7b9" stroke="#b6b7b9"></path><path d="M724 296L719 262L656 315Z" fill="#4d5460" stroke="#4d5460"></path><path d="M697 113L663 123L662 169Z" fill="#001122" stroke="#001122"></path><path d="M262 417L286 458L298 389Z" fill="#001122" stroke="#001122"></path><path d="M298 389L286 458L354 444Z" fill="#757a82" stroke="#757a82"></path><path d="M379 502L375 543L427 522Z" fill="#757a82" stroke="#757a82"></path><path d="M262 417L298 389L215 388Z" fill="#a0a2a6" stroke="#a0a2a6"></path><path d="M232 332L298 389L279 318Z" fill="#b6b7b9" stroke="#b6b7b9"></path><path d="M727 393L725 366L666 373Z" fill="#a0a2a6" stroke="#a0a2a6"></path><path d="M783 287L747 260L724 296Z" fill="#757a82" stroke="#757a82"></path><path d="M273 470L296 479L286 458Z" fill="#b6b7b9" stroke="#b6b7b9"></path><path d="M286 458L296 479L354 444Z" fill="#757a82" stroke="#757a82"></path><path d="M564 545L622 526L596 496Z" fill="#001122" stroke="#001122"></path><path d="M677 436L718 412L666 373Z" fill="#152131" stroke="#152131"></path><path d="M725 366L731 349L655 353Z" fill="#8a8e94" stroke="#8a8e94"></path><path d="M663 123L572 109L620 159Z" fill="#3a4250" stroke="#3a4250"></path><path d="M572 109L549 58L473 79Z" fill="#757a82" stroke="#757a82"></path><path d="M303 547L379 502L365 482Z" fill="#273140" stroke="#273140"></path><path d="M453 600L503 600L508 537Z" fill="#616771" stroke="#616771"></path><path d="M716 456L718 412L677 436Z" fill="#273140" stroke="#273140"></path><path d="M810 389L803 329L731 349Z" fill="#152131" stroke="#152131"></path><path d="M232 279L232 332L279 318Z" fill="#b6b7b9" stroke="#b6b7b9"></path><path d="M718 412L727 393L666 373Z" fill="#4d5460" stroke="#4d5460"></path><path d="M622 526L671 494L596 496Z" fill="#cccccc" stroke="#cccccc"></path><path d="M263 234L232 279L290 248Z" fill="#757a82" stroke="#757a82"></path><path d="M437 103L381 85L383 140Z" fill="#3a4250" stroke="#3a4250"></path><path d="M383 140L329 87L366 160Z" fill="#757a82" stroke="#757a82"></path><path d="M306 193L274 165L263 234Z" fill="#4d5460" stroke="#4d5460"></path><path d="M434 63L381 85L437 103Z" fill="#3a4250" stroke="#3a4250"></path><path d="M262 417L273 470L286 458Z" fill="#a0a2a6" stroke="#a0a2a6"></path><path d="M296 479L303 547L365 482Z" fill="#cccccc" stroke="#cccccc"></path><path d="M175 473L273 470L262 417Z" fill="#616771" stroke="#616771"></path><path d="M281 143L306 193L366 160Z" fill="#757a82" stroke="#757a82"></path><path d="M263 234L235 224L232 279Z" fill="#cccccc" stroke="#cccccc"></path><path d="M486 39L434 63L473 79Z" fill="#4d5460" stroke="#4d5460"></path><path d="M473 79L434 63L437 103Z" fill="#3a4250" stroke="#3a4250"></path><path d="M662 169L663 123L620 159Z" fill="#273140" stroke="#273140"></path><path d="M726 158L662 169L674 189Z" fill="#001122" stroke="#001122"></path><path d="M274 165L235 224L263 234Z" fill="#001122" stroke="#001122"></path><path d="M706 480L716 456L677 436Z" fill="#273140" stroke="#273140"></path><path d="M718 412L810 389L727 393Z" fill="#152131" stroke="#152131"></path><path d="M329 87L281 143L366 160Z" fill="#001122" stroke="#001122"></path><path d="M203 165L197 227L235 224Z" fill="#001122" stroke="#001122"></path><path d="M724 296L747 260L719 262Z" fill="#8a8e94" stroke="#8a8e94"></path><path d="M748 182L726 158L674 189Z" fill="#4d5460" stroke="#4d5460"></path><path d="M783 287L724 296L724 316Z" fill="#4d5460" stroke="#4d5460"></path><path d="M783 287L724 316L803 329Z" fill="#757a82" stroke="#757a82"></path><path d="M619 53L549 58L574 88Z" fill="#a0a2a6" stroke="#a0a2a6"></path><path d="M574 88L549 58L572 109Z" fill="#001122" stroke="#001122"></path><path d="M718 525L706 480L671 494Z" fill="#4d5460" stroke="#4d5460"></path><path d="M671 494L706 480L677 436Z" fill="#3a4250" stroke="#3a4250"></path><path d="M180 328L215 388L232 332Z" fill="#616771" stroke="#616771"></path><path d="M232 332L215 388L298 389Z" fill="#8a8e94" stroke="#8a8e94"></path><path d="M201 317L232 332L232 279Z" fill="#757a82" stroke="#757a82"></path><path d="M369 36L329 87L381 85Z" fill="#3a4250" stroke="#3a4250"></path><path d="M381 85L329 87L383 140Z" fill="#3a4250" stroke="#3a4250"></path><path d="M549 58L486 39L473 79Z" fill="#152131" stroke="#152131"></path><path d="M434 63L412 42L381 85Z" fill="#616771" stroke="#616771"></path><path d="M453 600L508 537L438 536Z" fill="#b6b7b9" stroke="#b6b7b9"></path><path d="M564 545L625 577L622 526Z" fill="#273140" stroke="#273140"></path><path d="M622 526L718 525L671 494Z" fill="#3a4250" stroke="#3a4250"></path><path d="M410 600L438 536L375 543Z" fill="#273140" stroke="#273140"></path><path d="M410 600L453 600L438 536Z" fill="#001122" stroke="#001122"></path><path d="M184 268L201 317L232 279Z" fill="#4d5460" stroke="#4d5460"></path><path d="M706 480L729 464L716 456Z" fill="#cccccc" stroke="#cccccc"></path><path d="M716 456L729 464L718 412Z" fill="#b6b7b9" stroke="#b6b7b9"></path><path d="M803 329L724 316L731 349Z" fill="#a0a2a6" stroke="#a0a2a6"></path><path d="M452 0L412 42L434 63Z" fill="#757a82" stroke="#757a82"></path><path d="M306 73L320 84L369 36Z" fill="#cccccc" stroke="#cccccc"></path><path d="M329 87L320 84L281 143Z" fill="#a0a2a6" stroke="#a0a2a6"></path><path d="M364 600L410 600L375 543Z" fill="#273140" stroke="#273140"></path><path d="M503 600L561 600L564 545Z" fill="#757a82" stroke="#757a82"></path><path d="M706 480L740 521L729 464Z" fill="#152131" stroke="#152131"></path><path d="M748 182L674 189L719 262Z" fill="#8a8e94" stroke="#8a8e94"></path><path d="M663 123L647 73L572 109Z" fill="#b6b7b9" stroke="#b6b7b9"></path><path d="M268 522L296 479L273 470Z" fill="#001122" stroke="#001122"></path><path d="M268 522L303 547L296 479Z" fill="#001122" stroke="#001122"></path><path d="M561 600L625 577L564 545Z" fill="#8a8e94" stroke="#8a8e94"></path><path d="M697 113L647 73L663 123Z" fill="#152131" stroke="#152131"></path><path d="M555 0L487 0L486 39Z" fill="#b6b7b9" stroke="#b6b7b9"></path><path d="M255 523L268 522L273 470Z" fill="#a0a2a6" stroke="#a0a2a6"></path><path d="M726 158L697 113L662 169Z" fill="#b6b7b9" stroke="#b6b7b9"></path><path d="M747 260L748 182L719 262Z" fill="#616771" stroke="#616771"></path><path d="M726 158L722 129L697 113Z" fill="#a0a2a6" stroke="#a0a2a6"></path><path d="M647 73L619 53L574 88Z" fill="#757a82" stroke="#757a82"></path><path d="M731 349L725 366L810 389Z" fill="#a0a2a6" stroke="#a0a2a6"></path><path d="M747 260L785 230L748 182Z" fill="#616771" stroke="#616771"></path><path d="M235 224L197 227L232 279Z" fill="#616771" stroke="#616771"></path><path d="M203 165L235 224L274 165Z" fill="#152131" stroke="#152131"></path><path d="M203 165L274 165L281 143Z" fill="#616771" stroke="#616771"></path><path d="M369 36L320 84L329 87Z" fill="#757a82" stroke="#757a82"></path><path d="M320 84L306 73L281 143Z" fill="#001122" stroke="#001122"></path><path d="M201 317L180 328L232 332Z" fill="#152131" stroke="#152131"></path><path d="M175 473L255 523L273 470Z" fill="#cccccc" stroke="#cccccc"></path><path d="M155 303L180 328L201 317Z" fill="#a0a2a6" stroke="#a0a2a6"></path><path d="M756 109L722 129L726 158Z" fill="#b6b7b9" stroke="#b6b7b9"></path><path d="M697 113L676 60L647 73Z" fill="#cccccc" stroke="#cccccc"></path><path d="M197 227L184 268L232 279Z" fill="#cccccc" stroke="#cccccc"></path><path d="M277 600L364 600L303 547Z" fill="#273140" stroke="#273140"></path><path d="M303 547L364 600L375 543Z" fill="#b6b7b9" stroke="#b6b7b9"></path><path d="M412 42L369 36L381 85Z" fill="#a0a2a6" stroke="#a0a2a6"></path><path d="M421 0L369 36L412 42Z" fill="#757a82" stroke="#757a82"></path><path d="M175 473L262 417L215 388Z" fill="#152131" stroke="#152131"></path><path d="M260 600L277 600L303 547Z" fill="#cccccc" stroke="#cccccc"></path><path d="M661 600L718 525L622 526Z" fill="#273140" stroke="#273140"></path><path d="M810 389L725 366L727 393Z" fill="#4d5460" stroke="#4d5460"></path><path d="M561 600L622 600L625 577Z" fill="#152131" stroke="#152131"></path><path d="M625 577L661 600L622 526Z" fill="#616771" stroke="#616771"></path><path d="M783 287L785 230L747 260Z" fill="#4d5460" stroke="#4d5460"></path><path d="M748 182L756 109L726 158Z" fill="#4d5460" stroke="#4d5460"></path><path d="M810 389L718 412L825 422Z" fill="#8a8e94" stroke="#8a8e94"></path><path d="M783 287L847 246L785 230Z" fill="#3a4250" stroke="#3a4250"></path><path d="M555 0L486 39L549 58Z" fill="#273140" stroke="#273140"></path><path d="M486 39L452 0L434 63Z" fill="#a0a2a6" stroke="#a0a2a6"></path><path d="M250 77L203 165L281 143Z" fill="#8a8e94" stroke="#8a8e94"></path><path d="M197 227L165 240L184 268Z" fill="#273140" stroke="#273140"></path><path d="M487 0L452 0L486 39Z" fill="#001122" stroke="#001122"></path><path d="M647 73L676 60L619 53Z" fill="#616771" stroke="#616771"></path><path d="M587 0L555 0L549 58Z" fill="#3a4250" stroke="#3a4250"></path><path d="M756 109L676 60L697 113Z" fill="#cccccc" stroke="#cccccc"></path><path d="M731 541L740 521L718 525Z" fill="#152131" stroke="#152131"></path><path d="M718 525L740 521L706 480Z" fill="#616771" stroke="#616771"></path><path d="M452 0L421 0L412 42Z" fill="#757a82" stroke="#757a82"></path><path d="M243 51L250 77L306 73Z" fill="#a0a2a6" stroke="#a0a2a6"></path><path d="M587 0L549 58L619 53Z" fill="#152131" stroke="#152131"></path><path d="M170 221L165 240L197 227Z" fill="#001122" stroke="#001122"></path><path d="M184 268L155 303L201 317Z" fill="#8a8e94" stroke="#8a8e94"></path><path d="M203 165L170 221L197 227Z" fill="#cccccc" stroke="#cccccc"></path><path d="M165 240L155 303L184 268Z" fill="#616771" stroke="#616771"></path><path d="M132 437L175 473L215 388Z" fill="#cccccc" stroke="#cccccc"></path><path d="M622 600L661 600L625 577Z" fill="#b6b7b9" stroke="#b6b7b9"></path><path d="M709 600L731 541L718 525Z" fill="#a0a2a6" stroke="#a0a2a6"></path><path d="M797 475L718 412L729 464Z" fill="#8a8e94" stroke="#8a8e94"></path><path d="M797 475L729 464L740 521Z" fill="#b6b7b9" stroke="#b6b7b9"></path><path d="M644 0L587 0L619 53Z" fill="#273140" stroke="#273140"></path><path d="M328 0L306 73L369 36Z" fill="#cccccc" stroke="#cccccc"></path><path d="M306 73L250 77L281 143Z" fill="#8a8e94" stroke="#8a8e94"></path><path d="M203 165L142 128L170 221Z" fill="#616771" stroke="#616771"></path><path d="M857 338L823 304L803 329Z" fill="#8a8e94" stroke="#8a8e94"></path><path d="M803 329L823 304L783 287Z" fill="#a0a2a6" stroke="#a0a2a6"></path><path d="M808 122L756 109L748 182Z" fill="#001122" stroke="#001122"></path><path d="M722 129L756 109L697 113Z" fill="#cccccc" stroke="#cccccc"></path><path d="M676 60L644 0L619 53Z" fill="#616771" stroke="#616771"></path><path d="M810 205L748 182L785 230Z" fill="#616771" stroke="#616771"></path><path d="M139 365L215 388L180 328Z" fill="#757a82" stroke="#757a82"></path><path d="M260 600L303 547L268 522Z" fill="#a0a2a6" stroke="#a0a2a6"></path><path d="M847 246L810 205L785 230Z" fill="#3a4250" stroke="#3a4250"></path><path d="M124 379L87 326L96 387Z" fill="#273140" stroke="#273140"></path><path d="M155 303L139 365L180 328Z" fill="#273140" stroke="#273140"></path><path d="M260 600L268 522L255 523Z" fill="#273140" stroke="#273140"></path><path d="M822 547L797 475L740 521Z" fill="#273140" stroke="#273140"></path><path d="M810 389L857 338L803 329Z" fill="#757a82" stroke="#757a82"></path><path d="M797 475L825 422L718 412Z" fill="#8a8e94" stroke="#8a8e94"></path><path d="M125 470L172 490L175 473Z" fill="#757a82" stroke="#757a82"></path><path d="M175 473L172 490L255 523Z" fill="#001122" stroke="#001122"></path><path d="M421 0L328 0L369 36Z" fill="#616771" stroke="#616771"></path><path d="M678 0L644 0L676 60Z" fill="#616771" stroke="#616771"></path><path d="M201 600L260 600L255 523Z" fill="#8a8e94" stroke="#8a8e94"></path><path d="M661 600L709 600L718 525Z" fill="#001122" stroke="#001122"></path><path d="M817 569L822 547L740 521Z" fill="#a0a2a6" stroke="#a0a2a6"></path><path d="M281 0L243 51L306 73Z" fill="#4d5460" stroke="#4d5460"></path><path d="M250 77L172 121L203 165Z" fill="#273140" stroke="#273140"></path><path d="M857 428L837 412L825 422Z" fill="#273140" stroke="#273140"></path><path d="M825 422L837 412L810 389Z" fill="#001122" stroke="#001122"></path><path d="M87 326L139 365L155 303Z" fill="#a0a2a6" stroke="#a0a2a6"></path><path d="M139 365L132 437L215 388Z" fill="#cccccc" stroke="#cccccc"></path><path d="M114 276L155 303L165 240Z" fill="#cccccc" stroke="#cccccc"></path><path d="M900 264L847 246L823 304Z" fill="#cccccc" stroke="#cccccc"></path><path d="M823 304L847 246L783 287Z" fill="#757a82" stroke="#757a82"></path><path d="M810 205L808 122L748 182Z" fill="#a0a2a6" stroke="#a0a2a6"></path><path d="M160 103L172 121L250 77Z" fill="#3a4250" stroke="#3a4250"></path><path d="M92 258L114 276L165 240Z" fill="#273140" stroke="#273140"></path><path d="M124 379L132 437L139 365Z" fill="#a0a2a6" stroke="#a0a2a6"></path><path d="M92 258L165 240L78 221Z" fill="#a0a2a6" stroke="#a0a2a6"></path><path d="M837 412L857 338L810 389Z" fill="#001122" stroke="#001122"></path><path d="M765 28L678 0L676 60Z" fill="#273140" stroke="#273140"></path><path d="M157 522L173 527L172 490Z" fill="#b6b7b9" stroke="#b6b7b9"></path><path d="M172 490L173 527L255 523Z" fill="#4d5460" stroke="#4d5460"></path><path d="M709 600L737 600L731 541Z" fill="#b6b7b9" stroke="#b6b7b9"></path><path d="M797 475L857 428L825 422Z" fill="#616771" stroke="#616771"></path><path d="M328 0L281 0L306 73Z" fill="#001122" stroke="#001122"></path><path d="M175 45L160 103L250 77Z" fill="#a0a2a6" stroke="#a0a2a6"></path><path d="M847 174L808 122L810 205Z" fill="#cccccc" stroke="#cccccc"></path><path d="M756 109L765 28L676 60Z" fill="#8a8e94" stroke="#8a8e94"></path><path d="M127 505L157 522L172 490Z" fill="#8a8e94" stroke="#8a8e94"></path><path d="M173 527L201 600L255 523Z" fill="#3a4250" stroke="#3a4250"></path><path d="M824 76L808 109L829 77Z" fill="#152131" stroke="#152131"></path><path d="M808 122L808 109L756 109Z" fill="#b6b7b9" stroke="#b6b7b9"></path><path d="M876 479L857 428L797 475Z" fill="#3a4250" stroke="#3a4250"></path><path d="M900 375L900 374L857 338Z" fill="#a0a2a6" stroke="#a0a2a6"></path><path d="M281 0L263 0L243 51Z" fill="#b6b7b9" stroke="#b6b7b9"></path><path d="M132 437L125 470L175 473Z" fill="#3a4250" stroke="#3a4250"></path><path d="M104 485L125 470L132 437Z" fill="#b6b7b9" stroke="#b6b7b9"></path><path d="M96 387L132 437L124 379Z" fill="#8a8e94" stroke="#8a8e94"></path><path d="M175 45L250 77L243 51Z" fill="#616771" stroke="#616771"></path><path d="M172 121L142 128L203 165Z" fill="#152131" stroke="#152131"></path><path d="M860 181L847 174L810 205Z" fill="#152131" stroke="#152131"></path><path d="M860 181L810 205L847 246Z" fill="#152131" stroke="#152131"></path><path d="M160 103L142 128L172 121Z" fill="#4d5460" stroke="#4d5460"></path><path d="M824 76L794 77L808 109Z" fill="#b6b7b9" stroke="#b6b7b9"></path><path d="M808 109L794 77L756 109Z" fill="#8a8e94" stroke="#8a8e94"></path><path d="M87 326L124 379L139 365Z" fill="#a0a2a6" stroke="#a0a2a6"></path><path d="M78 221L165 240L170 221Z" fill="#4d5460" stroke="#4d5460"></path><path d="M114 276L87 326L155 303Z" fill="#a0a2a6" stroke="#a0a2a6"></path><path d="M92 258L87 326L114 276Z" fill="#152131" stroke="#152131"></path><path d="M125 600L173 527L157 522Z" fill="#4d5460" stroke="#4d5460"></path><path d="M125 600L201 600L173 527Z" fill="#8a8e94" stroke="#8a8e94"></path><path d="M900 227L860 181L847 246Z" fill="#273140" stroke="#273140"></path><path d="M829 77L808 109L808 122Z" fill="#152131" stroke="#152131"></path><path d="M900 317L823 304L857 338Z" fill="#273140" stroke="#273140"></path><path d="M104 485L127 505L125 470Z" fill="#cccccc" stroke="#cccccc"></path><path d="M125 470L127 505L172 490Z" fill="#273140" stroke="#273140"></path><path d="M794 77L765 28L756 109Z" fill="#a0a2a6" stroke="#a0a2a6"></path><path d="M824 0L765 28L794 77Z" fill="#616771" stroke="#616771"></path><path d="M817 569L740 521L731 541Z" fill="#616771" stroke="#616771"></path><path d="M737 600L787 600L731 541Z" fill="#3a4250" stroke="#3a4250"></path><path d="M117 91L104 151L142 128Z" fill="#3a4250" stroke="#3a4250"></path><path d="M212 0L175 45L243 51Z" fill="#4d5460" stroke="#4d5460"></path><path d="M40 455L104 485L132 437Z" fill="#a0a2a6" stroke="#a0a2a6"></path><path d="M95 565L125 600L157 522Z" fill="#a0a2a6" stroke="#a0a2a6"></path><path d="M40 455L132 437L96 387Z" fill="#8a8e94" stroke="#8a8e94"></path><path d="M857 338L837 412L900 375Z" fill="#273140" stroke="#273140"></path><path d="M900 374L900 317L857 338Z" fill="#cccccc" stroke="#cccccc"></path><path d="M787 600L817 569L731 541Z" fill="#cccccc" stroke="#cccccc"></path><path d="M900 375L837 412L857 428Z" fill="#3a4250" stroke="#3a4250"></path><path d="M117 91L142 128L160 103Z" fill="#4d5460" stroke="#4d5460"></path><path d="M142 128L104 151L170 221Z" fill="#757a82" stroke="#757a82"></path><path d="M829 77L808 122L847 174Z" fill="#001122" stroke="#001122"></path><path d="M104 151L78 221L170 221Z" fill="#a0a2a6" stroke="#a0a2a6"></path><path d="M92 258L57 252L87 326Z" fill="#001122" stroke="#001122"></path><path d="M900 375L857 428L900 450Z" fill="#152131" stroke="#152131"></path><path d="M876 479L797 475L822 547Z" fill="#a0a2a6" stroke="#a0a2a6"></path><path d="M900 317L900 264L823 304Z" fill="#3a4250" stroke="#3a4250"></path><path d="M900 75L829 77L847 174Z" fill="#4d5460" stroke="#4d5460"></path><path d="M263 0L212 0L243 51Z" fill="#cccccc" stroke="#cccccc"></path><path d="M900 171L847 174L860 181Z" fill="#b6b7b9" stroke="#b6b7b9"></path><path d="M824 0L760 0L765 28Z" fill="#273140" stroke="#273140"></path><path d="M824 0L794 77L824 76Z" fill="#001122" stroke="#001122"></path><path d="M765 28L760 0L678 0Z" fill="#a0a2a6" stroke="#a0a2a6"></path><path d="M900 514L876 479L822 547Z" fill="#8a8e94" stroke="#8a8e94"></path><path d="M900 264L900 227L847 246Z" fill="#616771" stroke="#616771"></path><path d="M23 280L57 252L0 227Z" fill="#757a82" stroke="#757a82"></path><path d="M78 221L57 252L92 258Z" fill="#616771" stroke="#616771"></path><path d="M29 352L38 402L96 387Z" fill="#a0a2a6" stroke="#a0a2a6"></path><path d="M175 45L117 91L160 103Z" fill="#a0a2a6" stroke="#a0a2a6"></path><path d="M33 185L57 252L78 221Z" fill="#152131" stroke="#152131"></path><path d="M152 31L117 91L175 45Z" fill="#616771" stroke="#616771"></path><path d="M876 479L900 450L857 428Z" fill="#a0a2a6" stroke="#a0a2a6"></path><path d="M900 514L900 450L876 479Z" fill="#4d5460" stroke="#4d5460"></path><path d="M149 0L152 31L175 45Z" fill="#8a8e94" stroke="#8a8e94"></path><path d="M900 227L900 171L860 181Z" fill="#273140" stroke="#273140"></path><path d="M29 352L96 387L87 326Z" fill="#a0a2a6" stroke="#a0a2a6"></path><path d="M95 565L127 505L104 485Z" fill="#b6b7b9" stroke="#b6b7b9"></path><path d="M95 565L157 522L127 505Z" fill="#3a4250" stroke="#3a4250"></path><path d="M787 600L844 600L817 569Z" fill="#b6b7b9" stroke="#b6b7b9"></path><path d="M817 569L844 600L822 547Z" fill="#273140" stroke="#273140"></path><path d="M23 280L29 352L87 326Z" fill="#152131" stroke="#152131"></path><path d="M900 531L900 514L822 547Z" fill="#001122" stroke="#001122"></path><path d="M25 511L95 565L104 485Z" fill="#cccccc" stroke="#cccccc"></path><path d="M149 0L125 30L152 31Z" fill="#616771" stroke="#616771"></path><path d="M152 31L125 30L117 91Z" fill="#4d5460" stroke="#4d5460"></path><path d="M33 185L78 221L104 151Z" fill="#4d5460" stroke="#4d5460"></path><path d="M73 97L104 151L117 91Z" fill="#b6b7b9" stroke="#b6b7b9"></path><path d="M57 252L23 280L87 326Z" fill="#b6b7b9" stroke="#b6b7b9"></path><path d="M212 0L149 0L175 45Z" fill="#b6b7b9" stroke="#b6b7b9"></path><path d="M0 464L40 455L38 402Z" fill="#757a82" stroke="#757a82"></path><path d="M38 402L40 455L96 387Z" fill="#b6b7b9" stroke="#b6b7b9"></path><path d="M844 600L900 531L822 547Z" fill="#3a4250" stroke="#3a4250"></path><path d="M841 0L824 76L829 77Z" fill="#757a82" stroke="#757a82"></path><path d="M841 0L824 0L824 76Z" fill="#b6b7b9" stroke="#b6b7b9"></path><path d="M60 65L73 97L117 91Z" fill="#cccccc" stroke="#cccccc"></path><path d="M28 142L33 185L104 151Z" fill="#273140" stroke="#273140"></path><path d="M900 24L841 0L829 77Z" fill="#001122" stroke="#001122"></path><path d="M900 171L900 75L847 174Z" fill="#b6b7b9" stroke="#b6b7b9"></path><path d="M0 227L0 299L23 280Z" fill="#3a4250" stroke="#3a4250"></path><path d="M23 280L0 299L29 352Z" fill="#3a4250" stroke="#3a4250"></path><path d="M29 352L0 370L38 402Z" fill="#001122" stroke="#001122"></path><path d="M0 299L0 370L29 352Z" fill="#8a8e94" stroke="#8a8e94"></path><path d="M0 118L28 142L73 97Z" fill="#8a8e94" stroke="#8a8e94"></path><path d="M73 97L28 142L104 151Z" fill="#616771" stroke="#616771"></path><path d="M33 185L0 227L57 252Z" fill="#616771" stroke="#616771"></path><path d="M60 65L117 91L125 30Z" fill="#b6b7b9" stroke="#b6b7b9"></path><path d="M0 370L0 394L38 402Z" fill="#001122" stroke="#001122"></path><path d="M35 564L78 600L95 565Z" fill="#4d5460" stroke="#4d5460"></path><path d="M0 196L0 227L33 185Z" fill="#273140" stroke="#273140"></path><path d="M25 511L104 485L40 455Z" fill="#b6b7b9" stroke="#b6b7b9"></path><path d="M95 565L78 600L125 600Z" fill="#152131" stroke="#152131"></path><path d="M77 0L60 65L125 30Z" fill="#8a8e94" stroke="#8a8e94"></path><path d="M0 464L25 511L40 455Z" fill="#273140" stroke="#273140"></path><path d="M0 160L0 196L33 185Z" fill="#001122" stroke="#001122"></path><path d="M0 160L33 185L28 142Z" fill="#152131" stroke="#152131"></path><path d="M844 600L900 600L900 531Z" fill="#152131" stroke="#152131"></path><path d="M0 394L0 464L38 402Z" fill="#3a4250" stroke="#3a4250"></path><path d="M0 118L0 160L28 142Z" fill="#a0a2a6" stroke="#a0a2a6"></path><path d="M900 75L900 24L829 77Z" fill="#cccccc" stroke="#cccccc"></path><path d="M0 552L35 564L25 511Z" fill="#b6b7b9" stroke="#b6b7b9"></path><path d="M25 511L35 564L95 565Z" fill="#b6b7b9" stroke="#b6b7b9"></path><path d="M35 564L50 600L78 600Z" fill="#b6b7b9" stroke="#b6b7b9"></path><path d="M149 0L77 0L125 30Z" fill="#757a82" stroke="#757a82"></path><path d="M60 65L0 118L73 97Z" fill="#757a82" stroke="#757a82"></path><path d="M0 464L0 508L25 511Z" fill="#4d5460" stroke="#4d5460"></path><path d="M35 564L0 600L50 600Z" fill="#273140" stroke="#273140"></path><path d="M900 24L900 0L841 0Z" fill="#4d5460" stroke="#4d5460"></path><path d="M0 47L0 118L60 65Z" fill="#cccccc" stroke="#cccccc"></path><path d="M0 508L0 552L25 511Z" fill="#b6b7b9" stroke="#b6b7b9"></path><path d="M77 0L43 0L60 65Z" fill="#4d5460" stroke="#4d5460"></path><path d="M43 0L0 47L60 65Z" fill="#152131" stroke="#152131"></path><path d="M0 552L0 600L35 564Z" fill="#8a8e94" stroke="#8a8e94"></path><path d="M43 0L0 0L0 47Z" fill="#757a82" stroke="#757a82"></path></g></svg>