<svg id="visual" viewBox="0 0 900 600" width="900" height="600" xmlns="http://www.w3.org/2000/svg" xmlns:xlink="http://www.w3.org/1999/xlink" version="1.1"><rect x="0" y="0" width="900" height="600" fill="#001122"></rect><path d="M0 60L6.8 56.3C13.7 52.7 27.3 45.3 41 58.8C54.7 72.3 68.3 106.7 82 111.8C95.7 117 109.3 93 123 91.2C136.7 89.3 150.3 109.7 164 112.5C177.7 115.3 191.3 100.7 204.8 97.8C218.3 95 231.7 104 245.2 113.2C258.7 122.3 272.3 131.7 286 124.3C299.7 117 313.3 93 327 90.2C340.7 87.3 354.3 105.7 368 100.8C381.7 96 395.3 68 409 70.3C422.7 72.7 436.3 105.3 450 119.8C463.7 134.3 477.3 130.7 491 130.8C504.7 131 518.3 135 532 131.8C545.7 128.7 559.3 118.3 573 112.2C586.7 106 600.3 104 614 107.5C627.7 111 641.3 120 654.8 120C668.3 120 681.7 111 695.2 99C708.7 87 722.3 72 736 70C749.7 68 763.3 79 777 84.7C790.7 90.3 804.3 90.7 818 90.7C831.7 90.7 845.3 90.3 859 92.3C872.7 94.3 886.3 98.7 893.2 100.8L900 103L900 0L893.2 0C886.3 0 872.7 0 859 0C845.3 0 831.7 0 818 0C804.3 0 790.7 0 777 0C763.3 0 749.7 0 736 0C722.3 0 708.7 0 695.2 0C681.7 0 668.3 0 654.8 0C641.3 0 627.7 0 614 0C600.3 0 586.7 0 573 0C559.3 0 545.7 0 532 0C518.3 0 504.7 0 491 0C477.3 0 463.7 0 450 0C436.3 0 422.7 0 409 0C395.3 0 381.7 0 368 0C354.3 0 340.7 0 327 0C313.3 0 299.7 0 286 0C272.3 0 258.7 0 245.2 0C231.7 0 218.3 0 204.8 0C191.3 0 177.7 0 164 0C150.3 0 136.7 0 123 0C109.3 0 95.7 0 82 0C68.3 0 54.7 0 41 0C27.3 0 13.7 0 6.8 0L0 0Z" fill="#0066FF" stroke-linecap="round" stroke-linejoin="miter"></path></svg>